<?xml version="1.0" encoding="UTF-8"?><svg id="Layer_2" xmlns="http://www.w3.org/2000/svg" viewBox="0 0 24 24"><defs><style>.cls-1{fill:none;}.cls-2{fill:#231f20;}</style></defs><g id="Layer_1-2"><rect x="6.11" y="9.89" width="11.35" height="1.5"/><path class="cls-2" d="M19.25,21H4.75c-.97,0-1.75-.79-1.75-1.75V5.75c0-.97.79-1.75,1.75-1.75h7.35v1.5h-7.35c-.14,0-.25.11-.25.25v13.49c0,.14.11.25.25.25h14.49c.14,0,.25-.11.25-.25v-7.23h1.5v7.23c0,.97-.79,1.75-1.75,1.75Z"/><rect x="6.11" y="16" width="6.38" height="1.5"/><rect x="6.11" y="13" width="11.35" height="1.5"/><polygon class="cls-2" points="15.69 3 15.69 4.5 18.34 4.5 15.38 7.47 16.44 8.53 19.5 5.46 19.5 8.02 21 8.02 21 3 15.69 3"/><rect class="cls-1" width="24" height="24"/></g></svg>